<?xml version="1.0" encoding="utf-8"?>
<!-- Generator: Adobe Illustrator 22.1.0, SVG Export Plug-In . SVG Version: 6.00 Build 0)  -->
<svg version="1.1" id="Netflix_x5F_Icon_x5F_Calendar"
	 xmlns="http://www.w3.org/2000/svg" xmlns:xlink="http://www.w3.org/1999/xlink" x="0px" y="0px" viewBox="0 0 499.06 499.06"
	 style="enable-background:new 0 0 499.06 499.06;" xml:space="preserve">
<style type="text/css">
	.st0{fill:#B92025;}
	.st1{fill:#E72C2A;}
</style>
<polygon class="st0" points="417.852,454.813 417.852,94.489 454.755,131.073 454.755,454.813 "/>
<rect x="193.415" y="94.17" class="st0" width="161.727" height="36.903"/>
<rect x="44.306" y="94.17" class="st0" width="136.515" height="36.903"/>
<rect x="94.147" y="94.205" transform="matrix(-1.836970e-16 1 -1 -1.836970e-16 275.0261 -49.7125)" class="st1" width="136.444" height="36.903"/>
<rect x="268.469" y="94.205" transform="matrix(-1.836970e-16 1 -1 -1.836970e-16 449.3476 -224.034)" class="st1" width="136.444" height="36.903"/>
<rect x="94.861" y="193.724" class="st1" width="310.244" height="36.903"/>
<polygon class="st1" points="67.319,454.813 37.909,417.637 454.755,417.637 454.755,454.813 "/>
<polygon class="st1" points="368.046,131.073 368.046,94.17 417.852,94.17 454.754,131.073 "/>
<rect x="44.306" y="94.17" class="st1" width="37.402" height="310.552"/>
</svg>
