<?xml version="1.0" encoding="utf-8"?>
<!-- Generator: Adobe Illustrator 22.1.0, SVG Export Plug-In . SVG Version: 6.00 Build 0)  -->
<svg version="1.1" id="Isolation_Mode" xmlns="http://www.w3.org/2000/svg" xmlns:xlink="http://www.w3.org/1999/xlink" x="0px"
	 y="0px" viewBox="0 0 98 88" style="enable-background:new 0 0 98 88;" xml:space="preserve">
<style type="text/css">
	.st0{fill:#A7272B;}
	.st1{fill:#D32F30;}
</style>
<g id="Group-2_3_">
	<g id="Group_2_">
		<g id="Group-2_4_">
			<g id="Combined-Shape_6_" transform="translate(21.071247, 21.125000) rotate(180.000000) translate(-21.071247, -21.125000) ">
				<path class="st0" d="M63.273,49.693v5.14c3.523,1.898,5.908,5.532,5.908,9.708c0,4.176-2.386,7.81-5.908,9.708v4.584
					c6.032-2.274,10.313-7.933,10.313-14.57C73.586,57.625,69.305,51.967,63.273,49.693z"/>
			</g>
		</g>
		<path class="st1" d="M63.273,50.139v4.657c0.967,0.513,1.851,1.154,2.623,1.901c0.016-0.016,0.032-0.032,0.048-0.048l3.234-3.112
			C67.56,51.964,65.535,50.784,63.273,50.139z"/>
		<path class="st1" d="M68.984,53.334l-3.318,3.209c0.542,0.505,1.032,1.061,1.463,1.66c1.883,2.268,3.009,5.148,3.009,8.282
			c0,4.906-2.766,9.179-6.866,11.466v0.882c6.032-2.274,10.313-7.933,10.313-14.57C73.586,60.01,71.831,56.154,68.984,53.334z"/>
	</g>
</g>
<g id="Group-2_5_">
	<g id="Group_3_">
		<g id="Group-2_6_">
			<g id="Combined-Shape_1_" transform="translate(21.071247, 21.125000) rotate(180.000000) translate(-21.071247, -21.125000) ">
				<path class="st0" d="M41.222,49.693v5.14c-3.523,1.898-5.908,5.532-5.908,9.708c0,4.176,2.386,7.81,5.908,9.708v4.584
					c-6.032-2.274-10.313-7.933-10.313-14.57C30.91,57.625,35.191,51.967,41.222,49.693z"/>
			</g>
		</g>
		<path class="st1" d="M41.222,50.139v4.657c-0.967,0.513-1.851,1.154-2.623,1.901c-0.016-0.016-0.032-0.032-0.048-0.048
			l-3.234-3.112C36.936,51.964,38.96,50.784,41.222,50.139z"/>
		<path class="st1" d="M35.511,53.334l3.318,3.209c-0.542,0.505-1.032,1.061-1.463,1.66c-1.883,2.268-3.009,5.148-3.009,8.282
			c0,4.906,2.766,9.179,6.866,11.466v0.882c-6.032-2.274-10.313-7.933-10.313-14.57C30.91,60.01,32.664,56.154,35.511,53.334z"/>
	</g>
</g>
<g id="C_x26_S-Icon" transform="translate(131.000000, 0.000000)">
	<g id="Group-2_2_">
		<g id="Group_1_">
			<g id="Group-2_1_">
				<g id="Combined-Shape_3_" transform="translate(21.071247, 21.125000) rotate(180.000000) translate(-21.071247, -21.125000) ">
					<path id="path-3_1_" class="st0" d="M-78.752,11c8.937,0,16.182,7.263,16.182,16.223s-7.245,16.223-16.182,16.223
						s-16.182-7.263-16.182-16.223S-87.689,11-78.752,11z M-78.465,15.992c-6.346,0-11.49,5.157-11.49,11.519
						s5.144,11.519,11.49,11.519c6.346,0,11.49-5.157,11.49-11.519S-72.119,15.992-78.465,15.992z"/>
				</g>
			</g>
			<path id="Combined-Shape_4_" class="st1" d="M-86.194,36.075c0.009-0.01,0.019-0.021,0.028-0.031
				c-2.344-2.106-3.817-5.158-3.817-8.552c0-6.356,5.166-11.508,11.538-11.508c3.199,0,6.094,1.299,8.184,3.396
				c0.016-0.017,0.032-0.033,0.048-0.05l3.234-3.226c-2.509-2.531-5.986-4.098-9.828-4.098c-7.648,0-13.849,6.21-13.849,13.871
				C-90.655,29.91-88.937,33.541-86.194,36.075z"/>
			<path id="Combined-Shape_5_" class="st1" d="M-89.76,38.85c2.501,2.709,6.078,4.404,10.05,4.404
				c7.562,0,13.692-6.146,13.692-13.727c0-3.25-1.126-6.236-3.009-8.587c-0.431-0.621-0.922-1.198-1.463-1.721l3.318-3.326
				c2.847,2.924,4.601,6.922,4.601,11.331c0,8.96-7.245,16.223-16.182,16.223c-4.315,0-8.235-1.693-11.137-4.453
				C-89.849,38.949-89.806,38.901-89.76,38.85z"/>
		</g>
	</g>
</g>
<g>
	<path class="st1" d="M41.94,78.049c-0.045-0.369-0.075-0.742-0.075-1.123V59.601c0-2.505,0.951-4.791,2.514-6.552
		c2.275-3.425,7.149-7.598,17.033-5.899c-2.503-1.967-5.69-3.15-9.164-3.15c-8.043,0-14.562,6.317-14.562,14.109v19.94H41.94z"/>
	<path class="st0" d="M52.248,49.542c5.734,0,10.383,4.504,10.383,10.059v17.324c0,0.381-0.03,0.754-0.075,1.123h4.255v-19.94
		c0-4.426-2.107-8.372-5.398-10.959c-9.883-1.699-14.757,2.474-17.033,5.899C46.284,50.905,49.099,49.542,52.248,49.542z"/>
</g>
<polygon id="Path" class="st1" points="42.934,79.704 66.81,79.704 66.81,74.904 45.528,74.904 "/>
</svg>
