<?xml version="1.0" encoding="utf-8"?>
<!-- Generator: Adobe Illustrator 22.1.0, SVG Export Plug-In . SVG Version: 6.00 Build 0)  -->
<svg version="1.1" id="Layer_1" xmlns="http://www.w3.org/2000/svg" xmlns:xlink="http://www.w3.org/1999/xlink" x="0px" y="0px"
	 viewBox="0 0 104 74" style="enable-background:new 0 0 104 74;" xml:space="preserve">
<style type="text/css">
	.st0{fill:#D32F30;}
	.st1{fill:#A7272B;}
</style>
<title>M&amp;G Icon</title>
<desc>Created with Sketch.</desc>
<g id="Home">
	<g id="Marketing-Grow-Block" transform="translate(-458.000000, -2229.000000)">
		<g transform="translate(330.000000, 2229.000000)">
			<g id="M_x26_G-Icon" transform="translate(128.000000, 0.000000)">
				<g id="Group-7" transform="translate(0.000000, 42.393220)">
					<polygon id="Path" class="st0" points="25,11.4 37.2,11.4 37.2,7.1 29.3,7.1 					"/>
					<polygon id="Fill-3" class="st1" points="32.9,11.4 32.9,-9.4 37.2,-5.1 37.2,11.4 					"/>
					<polygon id="Fill-3_1_" class="st1" points="20.7,-9.5 20.7,11.9 16.4,7.7 16.4,-9.5 					"/>
					<polygon id="Path_1_" class="st0" points="37.1,-5.2 16.4,-5.2 16.4,-9.5 32.8,-9.5 					"/>
				</g>
				<g id="Group-7_1_" transform="translate(36.337349, 23.579661)">
					<polygon id="Path_2_" class="st0" points="13.7,30.3 25.9,30.3 25.9,26 18,26 					"/>
					<polygon id="Fill-3_2_" class="st1" points="21.6,30.2 21.6,-3.4 25.9,0.8 25.9,30.2 					"/>
					<polygon id="Fill-3_3_" class="st1" points="9.2,-3.6 9.2,30.7 4.9,26.5 4.9,-3.6 					"/>
					<polygon id="Path_3_" class="st0" points="26,0.7 4.9,0.7 4.9,-3.6 21.7,-3.6 					"/>
				</g>
				<g id="Group-7_2_" transform="translate(73.175904, 0.000000)">
					<polygon id="Path_4_" class="st0" points="2.1,53.8 14.2,53.8 14.2,49.5 6.4,49.5 					"/>
					<polygon id="Fill-3_4_" class="st1" points="9.9,53.8 9.9,3.9 14.2,8.1 14.2,53.8 					"/>
					<polygon id="Fill-3_5_" class="st1" points="-2.4,3.9 -2.4,54.3 -6.7,50.1 -6.7,3.9 					"/>
					<polygon id="Path_5_" class="st0" points="14.4,8.2 -6.7,8.2 -6.7,3.9 10,3.9 					"/>
				</g>
			</g>
		</g>
	</g>
</g>
<polygon id="Fill-3_6_" class="st1" points="89.5,65.6 10.2,65.6 14.4,61.3 89.5,61.3 "/>
</svg>
