<?xml version="1.0" encoding="utf-8"?>
<!-- Generator: Adobe Illustrator 22.1.0, SVG Export Plug-In . SVG Version: 6.00 Build 0)  -->
<svg version="1.1" id="Layer_1" xmlns="http://www.w3.org/2000/svg" xmlns:xlink="http://www.w3.org/1999/xlink" x="0px" y="0px"
	 viewBox="0 0 98 86" style="enable-background:new 0 0 98 86;" xml:space="preserve">
<style type="text/css">
	.st0{fill:#D32F30;}
	.st1{fill:#A7272B;}
</style>
<g id="Home">
	<g id="Business-Oper-Block" transform="translate(-881.000000, -2223.000000)">
		<g transform="translate(750.000000, 2223.000000)">
			<g id="BO-Icon" transform="translate(131.000000, 0.000000)">
				<g id="Group-7">
					<polygon id="Path" class="st0" points="11.555,85.749 77.605,85.749 77.605,79.481 17.861,79.481 					"/>
					<polygon id="Fill-3" class="st1" points="71.333,85.712 71.333,0 77.583,6.217 77.583,85.712 					"/>
					<polygon id="Fill-3_2_" class="st1" points="17.833,0 17.833,79.193 11.583,72.976 11.583,0 					"/>
					<polygon id="Path_9_" class="st0" points="77.605,6.268 11.583,6.268 11.583,0 71.299,0 					"/>
				</g>
			</g>
		</g>
	</g>
</g>
<path class="st1" d="M64.114,47.298c-0.786-0.775-2.53-1.185-5.183-1.22c-1.796-0.02-3.957,0.138-6.231,0.457
	c-1.018-0.587-2.067-1.227-2.891-1.996c-2.215-2.069-4.065-4.941-5.217-8.098c0.075-0.295,0.139-0.554,0.199-0.819
	c0,0,1.248-7.088,0.918-9.485c-0.046-0.329-0.074-0.424-0.162-0.679l-0.108-0.278c-0.34-0.783-1.005-1.613-2.049-1.567l-0.629-0.02
	c-1.164,0-2.112,0.595-2.361,1.485c-0.757,2.79,0.024,6.964,1.439,12.369l-0.362,0.881c-1.013,2.47-2.283,4.957-3.403,7.152
	l-0.146,0.285c-1.179,2.306-2.248,4.264-3.217,5.923l-1.001,0.529c-0.073,0.038-1.788,0.946-2.19,1.189
	c-3.413,2.038-5.675,4.351-6.05,6.187c-0.119,0.586-0.031,1.336,0.577,1.683l0.968,0.487c0.42,0.21,0.863,0.317,1.316,0.317
	c2.431,0,5.253-3.028,9.141-9.813c4.489-1.461,9.599-2.676,14.079-3.346c3.413,1.922,7.612,3.257,10.261,3.257
	c0.47,0,0.876-0.045,1.206-0.132c0.508-0.135,0.936-0.424,1.198-0.818c0.514-0.774,0.618-1.839,0.479-2.931
	C64.652,47.972,64.393,47.571,64.114,47.298L64.114,47.298z M27.803,60.234c0.443-1.212,2.198-3.608,4.793-5.735
	c0.163-0.132,0.565-0.509,0.933-0.858C30.816,57.968,28.999,59.693,27.803,60.234z M43.171,24.845c0.781,0,1.226,1.97,1.263,3.816
	c0.037,1.847-0.395,3.143-0.931,4.102c-0.444-1.42-0.658-3.658-0.658-5.121C42.845,27.642,42.812,24.845,43.171,24.845
	L43.171,24.845L43.171,24.845z M38.587,50.064c0.544-0.974,1.111-2.002,1.689-3.092c1.411-2.668,2.302-4.755,2.965-6.471
	c1.32,2.401,2.963,4.442,4.895,6.078c0.241,0.204,0.497,0.409,0.765,0.613C44.972,47.969,41.577,48.914,38.587,50.064L38.587,50.064
	L38.587,50.064z M63.358,49.842c-0.239,0.15-0.925,0.236-1.366,0.236c-1.423,0-3.184-0.651-5.652-1.709
	c0.949-0.07,1.818-0.106,2.598-0.106c1.427,0,1.85-0.006,3.246,0.35C63.58,48.97,63.598,49.693,63.358,49.842L63.358,49.842z"/>
</svg>
