<?xml version="1.0" encoding="utf-8"?>
<!-- Generator: Adobe Illustrator 22.1.0, SVG Export Plug-In . SVG Version: 6.00 Build 0)  -->
<svg version="1.1" id="Layer_1" xmlns="http://www.w3.org/2000/svg" xmlns:xlink="http://www.w3.org/1999/xlink" x="0px" y="0px"
	 viewBox="0 0 98 86" style="enable-background:new 0 0 98 86;" xml:space="preserve">
<style type="text/css">
	.st0{fill:#D32F30;}
	.st1{fill:#A7272B;}
</style>
<g id="Home_1_">
	<g id="Business-Oper-Block_1_" transform="translate(-881.000000, -2223.000000)">
		<g transform="translate(750.000000, 2223.000000)">
			<g id="BO-Icon_1_" transform="translate(131.000000, 0.000000)">
				<g id="Group-7_1_">
					<rect x="73.813" y="78.554" class="st0" width="21.681" height="5.446"/>
					<polygon id="Fill-3_3_" class="st1" points="89.434,83.967 89.434,9.5 95.473,14.901 95.473,83.967 					"/>
					<polygon class="st0" points="73.813,14.946 95.494,14.946 89.401,9.5 73.813,9.5 					"/>
				</g>
			</g>
		</g>
	</g>
</g>
<g id="Home">
	<g id="Business-Oper-Block" transform="translate(-881.000000, -2223.000000)">
		<g transform="translate(750.000000, 2223.000000)">
			<g id="BO-Icon" transform="translate(131.000000, 0.000000)">
				<g id="Group-7">
					<polygon id="Path" class="st0" points="11.555,85.749 77.605,85.749 77.605,79.481 17.861,79.481 					"/>
					<polygon id="Fill-3" class="st1" points="71.333,85.712 71.333,0 77.583,6.217 77.583,85.712 					"/>
					<polygon id="Fill-3_2_" class="st1" points="17.833,0 17.833,79.193 11.583,72.976 11.583,0 					"/>
					<polygon id="Path_9_" class="st0" points="77.605,6.268 11.583,6.268 11.583,0 71.299,0 					"/>
				</g>
			</g>
		</g>
	</g>
</g>
<path class="st0" d="M66.142,40.201c-0.928-0.914-2.985-1.398-6.116-1.439c-2.119-0.023-4.67,0.163-7.353,0.539
	c-1.201-0.693-2.44-1.448-3.412-2.356c-2.615-2.442-4.797-5.831-6.157-9.558c0.089-0.348,0.164-0.654,0.234-0.966
	c0,0,1.473-8.366,1.083-11.194c-0.054-0.388-0.087-0.5-0.191-0.802l-0.128-0.329c-0.401-0.924-1.186-1.903-2.418-1.85l-0.742-0.023
	c-1.373,0-2.492,0.702-2.786,1.752c-0.893,3.293,0.028,8.218,1.698,14.598l-0.427,1.039c-1.196,2.915-2.694,5.85-4.016,8.44
	l-0.172,0.337c-1.391,2.722-2.653,5.032-3.797,6.99l-1.181,0.625c-0.086,0.045-2.11,1.116-2.585,1.403
	c-4.028,2.405-6.698,5.135-7.141,7.302c-0.141,0.691-0.036,1.576,0.681,1.986l1.142,0.575c0.496,0.248,1.018,0.374,1.554,0.374
	c2.869,0,6.2-3.574,10.788-11.582c5.298-1.725,11.329-3.158,16.615-3.949c4.028,2.268,8.983,3.844,12.11,3.844
	c0.555,0,1.034-0.053,1.423-0.156c0.6-0.159,1.105-0.501,1.413-0.965c0.607-0.913,0.73-2.171,0.565-3.459
	C66.778,40.996,66.472,40.523,66.142,40.201L66.142,40.201z M23.289,55.467c0.523-1.43,2.594-4.259,5.656-6.768
	c0.193-0.156,0.667-0.6,1.101-1.013C26.844,52.793,24.7,54.828,23.289,55.467z M41.426,13.702c0.922,0,1.447,2.325,1.49,4.504
	c0.044,2.179-0.466,3.709-1.098,4.841c-0.524-1.676-0.777-4.317-0.777-6.044C41.041,17.003,41.003,13.702,41.426,13.702
	L41.426,13.702L41.426,13.702z M36.016,43.465c0.642-1.15,1.311-2.363,1.994-3.649c1.665-3.149,2.716-5.612,3.5-7.637
	c1.557,2.834,3.497,5.243,5.777,7.173c0.285,0.241,0.586,0.483,0.903,0.724C43.552,40.992,39.544,42.108,36.016,43.465
	L36.016,43.465L36.016,43.465z M65.251,43.203c-0.282,0.177-1.091,0.279-1.612,0.279c-1.68,0-3.757-0.768-6.671-2.017
	c1.12-0.083,2.146-0.125,3.066-0.125c1.685,0,2.184-0.007,3.831,0.413C65.512,42.173,65.533,43.027,65.251,43.203L65.251,43.203z"/>
<polygon id="Path_5_" class="st0" points="60.228,62.78 33.38,62.78 33.38,58.601 56.024,58.601 "/>
<polygon id="Path_8_" class="st0" points="60.228,71.137 33.38,71.137 33.38,66.959 56.024,66.959 "/>
</svg>
