<?xml version="1.0" encoding="utf-8"?>
<!-- Generator: Adobe Illustrator 22.1.0, SVG Export Plug-In . SVG Version: 6.00 Build 0)  -->
<svg version="1.1" id="Layer_1" xmlns="http://www.w3.org/2000/svg" xmlns:xlink="http://www.w3.org/1999/xlink" x="0px" y="0px"
	 viewBox="0 0 98 86" style="enable-background:new 0 0 98 86;" xml:space="preserve">
<style type="text/css">
	.st0{fill:#D32F30;}
	.st1{fill:#A7272B;}
</style>
<g>
	<g id="Home_1_">
		<g id="Business-Oper-Block_1_" transform="translate(-881.000000, -2223.000000)">
			<g transform="translate(750.000000, 2223.000000)">
				<g id="BO-Icon_1_" transform="translate(131.000000, 0.000000)">
					<g id="Group-7_1_">
						<polygon id="Path_13_" class="st0" points="27.276,85.749 86.487,85.749 86.487,80.13 32.929,80.13 						"/>
						<polygon id="Fill-3_3_" class="st1" points="80.865,85.716 80.865,8.878 86.467,14.451 86.467,85.716 						"/>
						<polygon class="st0" points="65.88,14.498 86.487,14.498 80.834,8.878 65.88,8.878 						"/>
					</g>
				</g>
			</g>
		</g>
	</g>
	<g id="Home">
		<g id="Business-Oper-Block" transform="translate(-881.000000, -2223.000000)">
			<g transform="translate(750.000000, 2223.000000)">
				<g id="BO-Icon" transform="translate(131.000000, 0.000000)">
					<g id="Group-7">
						<polygon id="Path" class="st0" points="11.513,76.871 70.724,76.871 70.724,71.252 17.166,71.252 						"/>
						<polygon id="Fill-3" class="st1" points="65.102,76.837 65.102,0 70.705,5.573 70.705,76.837 						"/>
						<polygon id="Fill-3_2_" class="st1" points="17.141,0 17.141,70.993 11.538,65.42 11.538,0 						"/>
						<polygon id="Path_2_" class="st0" points="59.742,22.027 23.64,22.027 23.64,16.408 54.089,16.408 						"/>
						<polygon id="Path_3_" class="st0" points="59.742,33.266 23.64,33.266 23.64,27.647 54.089,27.647 						"/>
						<polygon id="Path_4_" class="st0" points="59.742,44.504 23.64,44.504 23.64,38.885 54.089,38.885 						"/>
						<polygon id="Path_5_" class="st0" points="59.742,44.504 23.64,44.504 23.64,38.885 54.089,38.885 						"/>
						<polygon id="Path_8_" class="st0" points="59.742,55.743 23.64,55.743 23.64,50.123 54.089,50.123 						"/>
						<polygon id="Path_9_" class="st0" points="70.724,5.619 11.538,5.619 11.538,0 65.071,0 						"/>
					</g>
				</g>
			</g>
		</g>
	</g>
</g>
</svg>
