<?xml version="1.0" encoding="utf-8"?>
<!-- Generator: Adobe Illustrator 22.1.0, SVG Export Plug-In . SVG Version: 6.00 Build 0)  -->
<svg version="1.1" id="Layer_1" xmlns="http://www.w3.org/2000/svg" xmlns:xlink="http://www.w3.org/1999/xlink" x="0px" y="0px"
	 viewBox="0 0 104 74" style="enable-background:new 0 0 104 74;" xml:space="preserve">
<style type="text/css">
	.st0{fill:none;}
	.st1{fill:#A7272B;}
	.st2{fill:#D32F30;}
</style>
<g>
	<path class="st0" d="M50.151,59.734c-1.343-0.122-1.751-0.325-1.751-0.878v-0.773l2.482,0.356v1.314L50.151,59.734z"/>
	<path class="st1" d="M51.386,59.785c-0.498,0-0.906-0.02-1.236-0.05l-0.609-0.057v-0.076l-0.987-0.14
		C37.39,57.833,28.973,48.128,28.973,36.888c0-1.274,0.961-2.235,2.236-2.235c1.258,0,2.233,1.201,2.233,2.235
		c0,10.232,8.325,18.557,18.558,18.557c10.231,0,18.556-8.325,18.556-18.557c0-1.274,0.961-2.235,2.236-2.235
		c1.26,0,2.236,1.201,2.236,2.235c0,11.274-8.417,20.978-19.58,22.574C53.886,59.678,52.522,59.785,51.386,59.785z"/>
	<path class="st2" d="M49.542,70.869V58.333l0.731,0.065c0.297,0.026,0.664,0.046,1.113,0.046c1.074,0,2.378-0.105,3.875-0.31
		l0.186,1.327l-0.989,0.142v11.266H49.542z"/>
	<path class="st1" d="M38.138,74c-1.186,0-2.906-0.871-2.906-2.236c0-1.26,1.201-2.236,2.236-2.236h29.064
		c1.26,0,2.236,1.201,2.236,2.236c0,1.26-1.201,2.236-2.236,2.236H38.138z"/>
	<path class="st0" d="M52.223,46.501c-4.644,0-8.718-4.074-8.718-8.719V11.849c0-4.107,2.956-7.7,7.028-8.545
		c0.559-0.116,1.127-0.174,1.69-0.174c4.646,0,8.72,4.074,8.72,8.719v25.933C60.943,42.508,56.949,46.501,52.223,46.501z"/>
	<path class="st0" d="M52.223,46.501c-4.644,0-8.718-4.074-8.718-8.719V11.849c0-4.107,2.956-7.7,7.028-8.545
		c0.559-0.116,1.127-0.174,1.69-0.174c4.646,0,8.72,4.074,8.72,8.719v25.933c0,4.627-3.777,8.525-8.425,8.693
		C52.356,46.494,52.29,46.501,52.223,46.501z"/>
	<path class="st1" d="M52.223,49.63c-4.113,0-7.875-2.123-10.065-5.68l1.046-0.826c1.902,1.902,4.511,2.3,6.364,2.3
		c1.234,0,2.271-0.174,2.779-0.277c4.05-0.15,7.255-3.447,7.255-7.365V11.849c0-3.861-3.517-7.378-7.379-7.378
		c-0.472,0-0.948,0.05-1.419,0.147l-0.378-1.283c1.175-0.457,3-1.002,5.017-1.002c2.325,0,4.329,0.718,5.956,2.135
		c1.777,2.24,2.672,4.761,2.672,7.381v25.933C64.071,44.426,58.866,49.63,52.223,49.63z"/>
	<path class="st2" d="M49.568,46.766c-2.107,0-5.087-0.467-7.312-2.692c-1.266-2.024-1.882-4.157-1.882-6.292V11.849
		C40.374,5.204,45.579,0,52.223,0c3.602,0,6.978,1.661,9.261,4.559l-0.967,0.92c-1.375-1.198-3.083-1.804-5.074-1.804
		c-1.81,0-3.463,0.496-4.532,0.912c-3.502,0.736-6.065,3.845-6.065,7.263v25.933c0,3.861,3.517,7.378,7.377,7.378l0.391,1.301
		C51.932,46.6,50.852,46.766,49.568,46.766L49.568,46.766z"/>
</g>
</svg>
