<?xml version="1.0" encoding="utf-8"?>
<!-- Generator: Adobe Illustrator 22.0.1, SVG Export Plug-In . SVG Version: 6.00 Build 0)  -->
<svg version="1.1" id="Layer_1" xmlns="http://www.w3.org/2000/svg" xmlns:xlink="http://www.w3.org/1999/xlink" x="0px" y="0px"
	 viewBox="0 0 98 86" style="enable-background:new 0 0 98 86;" xml:space="preserve">
<style type="text/css">
	.st0{fill:#D32F30;}
	.st1{fill:#A7272B;}
</style>
<g id="Home">
	<g id="Business-Oper-Block" transform="translate(-881.000000, -2223.000000)">
		<g transform="translate(750.000000, 2223.000000)">
			<g id="BO-Icon" transform="translate(131.000000, 0.000000)">
				<g id="Group-7">
					<polygon id="Path" class="st0" points="11.6,85.7 77.6,85.7 77.6,79.5 17.9,79.5 					"/>
					<polygon id="Fill-3" class="st1" points="71.3,85.7 71.3,0 77.6,6.2 77.6,85.7 					"/>
					<polygon id="Fill-3_2_" class="st1" points="17.8,0 17.8,79.2 11.6,73 11.6,0 					"/>
					<polygon id="Path_9_" class="st0" points="77.6,6.3 11.6,6.3 11.6,0 71.3,0 					"/>
				</g>
			</g>
		</g>
	</g>
</g>
<path class="st1" d="M56.6,62.5c-0.1,0-0.2,0-0.3,0c-2.2,0-4.5,0-6.7,0c-0.2,0-0.3-0.1-0.4-0.2c-1.1-2-2.1-4-3.2-6
	c-0.4-0.8-0.9-1.7-1.3-2.5c-0.3-0.6-0.5-1.2-0.6-1.9c0-0.1,0-0.1-0.1-0.2c-0.2,0.5-0.3,1-0.5,1.4c-0.3,0.7-0.7,1.5-1.1,2.2
	c-1.3,2.3-2.5,4.7-3.8,7c-0.1,0.1-0.1,0.2-0.3,0.2c-2.3,0-4.6,0-6.9,0c-0.1,0-0.1,0-0.2,0c0.3-0.5,0.6-0.9,0.9-1.3
	c2.6-4.1,5.2-8.1,7.8-12.2c0.1-0.1,0.1-0.2,0-0.4c-1.9-3.2-3.8-6.4-5.6-9.6c-0.7-1.2-1.5-2.5-2.2-3.7c0,0,0-0.1-0.1-0.2
	c0.1,0,0.2,0,0.3,0c2.3,0,4.7,0,7,0c0.2,0,0.3,0,0.3,0.2c1.3,2.7,2.6,5.5,3.9,8.2c0.3,0.6,0.5,1.3,0.7,1.9c0,0.1,0,0.1,0.1,0.3
	c0.1-0.4,0.3-0.8,0.4-1.2c0.4-1.2,1-2.2,1.6-3.3c1.1-2,2.1-4,3.2-6c0.1-0.1,0.1-0.2,0.3-0.2c2.2,0,4.4,0,6.6,0c0,0,0.1,0,0.1,0
	c-0.2,0.4-0.4,0.7-0.7,1.1c-2.5,4.1-4.9,8.2-7.4,12.3c-0.1,0.2-0.1,0.3,0,0.4c2.7,4.3,5.3,8.7,7.9,13C56.3,62,56.4,62.2,56.6,62.5z"
	/>
<polygon class="st1" points="43,58.6 36.2,58.6 32.3,62.5 43,62.5 "/>
</svg>
